<?xml version="1.0" encoding="utf-8"?>
<!-- Generator: Adobe Illustrator 19.0.0, SVG Export Plug-In . SVG Version: 6.00 Build 0)  -->
<svg version="1.1" xmlns="http://www.w3.org/2000/svg" xmlns:xlink="http://www.w3.org/1999/xlink" x="0px" y="0px"
	 viewBox="0 0 960 560" style="enable-background:new 0 0 960 560;" xml:space="preserve">
<style type="text/css">
	.st0{fill:#FFFFFF;}
</style>
<g id="Camada_1">
</g>
<g id="Camada_2">
	<g id="XMLID_3_">
		<g id="XMLID_129_">
			<path id="XMLID_151_" class="st0" d="M414.1,248.4c-0.1,0.7-0.4,1.3-0.7,1.9c-1.3,3.5-1.2,7.1-0.1,10.6c0.2,0.5,0.2,1,0.5,1.5
				c0.6,1.3,1.2,2.7,2.2,3.9c0.2,0.3,0.4,0.7,0.8,0.5c0.4-0.1,0.2-0.6,0.2-0.9c-0.1-3.4-0.2-6.7-0.4-10.1c-0.1-1.6-0.2-3.1-0.1-4.7
				c0-0.2,0-0.4,0.1-0.7c0.2,0.3,0.2,0.5,0.3,0.8c0.3,1.5,0.4,3,0.6,4.4c0.6,3.4,0.9,6.9,1.4,10.4c0,0.3,0.1,0.5,0.2,0.8
				c0.1,0.2,0.2,0.3,0.4,0.1c0.2-0.2,0.3-0.5,0.5-0.8c1.3-2.9,1.9-5.9,1.5-9.1c-0.1-0.9-0.4-1.9-0.7-2.8c-0.1-0.4-0.2-0.7-0.2-1.1
				c-0.1-0.4-0.4-0.7-0.5-1.1c-0.4-1.4-1.1-2.8-1.7-4.1c-0.4-1.1-1.2-1.9-1.7-3c-0.1-0.3-0.4-0.6-0.7-0.7
				C415.2,245.8,414.6,247.1,414.1,248.4z"/>
			<path id="XMLID_150_" class="st0" d="M479.8,227.1c-2.5,0.3-4.7,1.4-6.8,2.9c-1.5,1-2.8,2.3-3.7,3.8c-0.5,0.8-0.8,1.7-1.1,2.6
				c-0.2,0.6-0.4,1.3-0.6,1.9c-0.1,0.2-0.2,0.4,0,0.6c0.2,0.1,0.4,0,0.6-0.2c0.5-0.4,0.9-0.9,1.3-1.3c1.9-1.9,3.8-3.9,5.8-5.8
				c0,0,0.1-0.1,0.2-0.1c-0.4,0.6-0.9,1.2-1.4,1.8c-1.7,2-3.4,4-5.2,6c-0.2,0.2-0.5,0.4-0.4,0.7c0.1,0.3,0.6,0.3,0.9,0.2
				c1.4-0.1,2.7-0.5,3.9-1.2c1.7-1,2.9-2.5,3.8-4.3c1.2-2.3,1.9-4.8,2.8-7.3c0-0.1,0.1-0.2,0.1-0.3
				C479.9,227.1,479.8,227.1,479.8,227.1z"/>
			<path id="XMLID_149_" class="st0" d="M424,270.9c5.2,1.8,10.5,3.6,15.7,5.4c-1.7-0.3-3.5-0.7-5.2-1.1c-3-0.7-5.9-1.5-8.9-2.1
				c-0.4-0.1-0.7-0.1-1.1-0.1c-0.1,0-0.3-0.1-0.3,0c-0.1,0.1,0.1,0.2,0.2,0.3c1,1.1,2.2,2.1,3.3,3c1.3,1.2,3,1.7,4.6,2.3
				c1.1,0.4,2.2,0.8,3.3,1c2.7,0.5,5.3,0.2,7.9-0.6c0.8-0.2,1.6-0.6,2.5-0.8c0.5-0.1,0.6-0.4,0.2-0.8c-1.8-1.9-3.8-3.6-5.9-5.1
				c-0.7-0.5-1.5-0.8-2.3-1.1c-1.4-0.5-2.8-1-4.3-1.4c-3.2-0.7-6.3-0.5-9.4,0.5c-0.1,0-0.2,0.1-0.2,0.1
				C424.1,270.8,424.1,270.8,424,270.9z"/>
			<path id="XMLID_148_" class="st0" d="M449.1,264.5c-2.8-0.8-5.6-1.8-8.5-2.7c-1.7-0.6-3.4-1.1-5.1-1.6c-0.2-0.1-0.5-0.2-0.7,0
				c-0.2,0.2,0.1,0.4,0.2,0.6c1.9,2.3,4.1,4.1,6.8,5.3c2.1,0.9,4.3,1.6,6.6,1.5c1.3-0.1,2.5-0.2,3.8-0.5c0.6-0.1,1.2-0.3,1.8-0.3
				c0.3,0,0.4-0.1,0.4-0.4c0-0.5-0.1-0.9-0.4-1.3c-1.8-2.2-3.9-4.1-6.4-5.5c-3.1-1.6-6.4-2.4-9.8-2c-0.9,0.1-1.7,0.2-2.6,0.3
				c-0.1,0-0.3,0-0.3,0.2c0,0.1,0.1,0.1,0.2,0.2c0,0,0.1,0,0.1,0c3,1.3,6,2.6,9,3.9C445.9,263.1,447.5,263.9,449.1,264.5z"/>
			<path id="XMLID_147_" class="st0" d="M417.5,274c-0.2,0.6-0.5,1.1-0.6,1.6c-0.1,0.3-0.1,0.5,0.2,0.7c0.5,0.3,0.8,0.3,1,0
				c0.5-0.6,0.9-1.2,1.2-1.9c1.8-3.9,3.8-7.6,6.4-11.1c1.3-1.7,2.8-3.3,4.4-4.7c1.8-1.6,3.6-3.2,5.7-4.4c1.7-1,3.3-1.9,5.2-2.6
				c1.8-0.6,3.6-1.4,5.4-1.8c1.1-0.3,2.3-0.5,3.4-0.7c1.6-0.3,3.1-0.9,4.6-1.3c0.1,0,0.3-0.1,0.4-0.1c1.7-0.1,3-1.1,4.5-1.7
				c2.4-1,4.5-2.5,6.6-4c0.6-0.4,0.6-0.9,0-1.4c-0.6-0.5-0.7-0.5-1.2,0c-2.2,2.1-4.8,3.4-7.6,4.5c-2.7,1-5.4,1.5-8.1,2.2
				c-2.6,0.7-5.2,1.3-7.7,2.2c-0.8,0.3-1.6,0.8-2.4,1.1c-2.3,1-4.4,2.3-6.4,3.7c-2.6,1.8-5,3.9-7.1,6.4c-2.2,2.6-4.1,5.4-5.7,8.5
				C419,270.8,418.2,272.4,417.5,274z"/>
			<path id="XMLID_146_" class="st0" d="M432.9,238.4c-0.1,1-0.1,1.9-0.2,2.9c-0.3,3.6-0.6,7.3-0.8,10.9c0,0.2-0.1,0.5,0.1,0.6
				c0.2,0.1,0.3-0.2,0.4-0.4c1.3-1.9,2.3-3.9,3-6.1c1-3.1,0.8-6.1,0-9.2c-0.4-1.6-1-3.1-1.7-4.7c-0.1-0.3-0.2-0.3-0.5-0.1
				c-2,2-3.4,4.3-4.3,7c-0.5,1.4-0.9,2.8-1,4.3c0,0.8,0,1.6-0.1,2.4c0,1.6,0.5,3.1,1.2,4.5c0.3,0.5,0.5,1.1,0.8,1.6
				c0.1,0.1,0.1,0.3,0.3,0.3c0.2,0,0.2-0.2,0.2-0.4c0.4-1.8,0.7-3.6,1-5.4c0.4-2.3,0.6-4.7,1.2-7
				C432.6,239.3,432.7,238.8,432.9,238.4C432.9,238.4,432.9,238.4,432.9,238.4z"/>
			<path id="XMLID_145_" class="st0" d="M449.9,234.1c0,0.8-0.1,1.6-0.3,2.4c-0.5,2.9-0.9,5.8-1.4,8.7c0,0.1,0,0.1,0,0.2
				c0,0.1-0.1,0.2,0.1,0.3c0.1,0.1,0.2,0,0.3-0.1c0.8-0.7,1.4-1.5,2-2.4c1.8-3,2.3-6.2,1.8-9.7c-0.2-1.7-0.7-3.4-1.3-5.1
				c-0.1-0.4-0.2-0.4-0.5-0.1c-1.2,1.2-2.1,2.6-3,4.1c-1.2,2-2,4.2-2.2,6.6c-0.1,1.3-0.1,2.6,0.2,3.9c0.2,0.7,0.5,1.2,0.8,1.9
				c0,0.1,0.1,0.2,0.3,0.2c0.1,0,0.2-0.1,0.3-0.2c0.3-0.6,0.4-1.2,0.6-1.8c0.6-2.3,1.1-4.6,1.7-6.9
				C449.4,235.3,449.6,234.7,449.9,234.1z"/>
			<path id="XMLID_144_" class="st0" d="M461.3,256.2c-3.9-1.3-7.8-2.8-11.7-4.2c-0.1,0.2,0.1,0.3,0.1,0.4c2,2.4,4.2,4.3,7.1,5.5
				c2.7,1.1,5.6,1.6,8.5,1c1.3-0.3,1-0.3,0.5-1.1c-0.9-1.6-2.2-2.8-3.6-4c-1.5-1.2-3.2-1.8-5-2.5c-1.8-0.6-3.6-0.9-5.5-1
				c-0.3,0-0.7,0-1,0c-0.1,0-0.3,0-0.3,0.2c0,0.1,0.1,0.2,0.2,0.3c0.7,0.5,1.5,0.8,2.2,1.2c2.5,1.2,5.1,2.4,7.6,3.7
				C460.7,255.9,461,256.1,461.3,256.2z"/>
			<path id="XMLID_143_" class="st0" d="M461.4,232.2c0.1,1.1,0,2.2-0.1,3.3c-0.1,2-0.4,4-0.3,6.1c0,0.2-0.1,0.5,0.1,0.5
				c0.2,0.1,0.3-0.2,0.4-0.4c1.7-2.4,2.5-5.1,2.5-8c0-1.7-0.2-3.4-0.6-5.1c-0.1-0.4-0.2-0.9-0.5-1.2c-0.1-0.2-0.1-0.4-0.2-0.5
				c0-0.2-0.1-0.5-0.2-0.6c-0.5-0.5-0.8-0.5-1.1,0.1c-1.4,2.5-2.4,5.1-3,7.8c-0.4,1.9-0.1,3.8,0.4,5.6c0.1,0.5,0.3,0.9,0.5,1.4
				c0.1,0.1,0.1,0.3,0.3,0.3c0.2,0,0.2-0.2,0.2-0.4c0.4-2.2,0.8-4.4,1.1-6.7C460.9,233.6,461,232.9,461.4,232.2z"/>
			<path id="XMLID_139_" class="st0" d="M472.1,249.3c-1.1-0.2-2-0.6-2.9-0.9c-2.2-0.7-4.3-1.4-6.5-2c-0.2-0.1-0.6-0.2-0.7,0
				c-0.2,0.3,0.1,0.5,0.3,0.7c0.8,0.9,1.8,1.7,2.7,2.5c0.4,0.3,1,0.5,1.5,0.7c1.5,0.6,2.9,1.2,4.5,1.3c2,0.2,3.9,0.2,5.9-0.2
				c0.7-0.1,0.8-0.2,0.3-0.8c-0.7-0.8-1.4-1.5-2.1-2.1c-0.3-0.3-0.6-0.5-1-0.6c-2-0.8-4-1.6-6.1-2.2c-1.5-0.4-3.1-0.3-4.6-0.3
				c-0.1,0-0.2,0-0.2,0.1c0,0.1,0.1,0.2,0.1,0.2c0.1,0.1,0.2,0.1,0.3,0.2c2.1,0.9,4.3,1.7,6.5,2.6
				C470.7,248.7,471.3,249,472.1,249.3z"/>
		</g>
	</g>
</g>
</svg>
